<?xml version="1.0" encoding="utf-8"?>
<svg id="master-artboard" viewBox="0 0 435.2605285644531 398.9990234375" version="1.1" xmlns="http://www.w3.org/2000/svg" x="0px" y="0px" style="enable-background:new 0 0 1400 980;" width="435.2605285644531px" height="398.9990234375px"><defs><path id="text-path-0" d="M 778.8464965820312 213.4612274169922 A 100 18 0 0 1 988.3533935546875 213.4612274169922 A 100 18 0 0 1 778.8464965820312 213.4612274169922 Z" style="fill: none; stroke: red; stroke-width: 2;"/><path id="text-path-1" d="M 664.5464477539062 37.96122741699219 A 100 19 0 0 1 876.5812377929688 37.96122741699219 A 100 19 0 0 1 664.5464477539062 37.96122741699219" style="fill: none; stroke: red; stroke-width: 2;"/><path id="text-path-2" d="M 765.3650512695312 211.70851135253906 A 100 17 0 0 1 991.5017700195312 211.70851135253906 A 100 17 0 0 1 765.3650512695312 211.70851135253906" style="fill: none; stroke: red; stroke-width: 2;"/><path id="path-1" d="M 765.3650512695312 211.70851135253906 A 100 17 0 0 1 991.5017700195312 211.70851135253906 A 100 17 0 0 1 765.3650512695312 211.70851135253906" style="fill: none; stroke: red; stroke-width: 2;"/></defs><rect id="ee-background" x="0" y="0" width="435.2605285644531" height="398.9990234375" style="fill: rgb(0, 0, 0); fill-opacity: 0; pointer-events: none;"/>


<g transform="matrix(1.9839897155761719, 0, 0, 1.9839897155761719, -1748.9179992675781, -1179.0786437988281)"><g transform="matrix(2.811575412750244, 0, 0, 2.811575412750244, -50.47359848022455, 446.5369262695313)">
		
		
		
		
		
		
		
		
		
		
		
		<g transform="matrix(0.24210724234580996, 0, 0, 0.24210724234580996, 304.0602246131492, 24.759579869760913)"><g transform="matrix(1.0000000000000002, 0, 0, 1.0000000000000002, 0, 0)">
			<path class="st510" d="M213.8,212.1c6.7,0,13-1.5,18.7-4.3l11.8,19.2c-12.1,7.7-20.1,21.1-20.1,36.4c0,15.3,8,28.7,20,36.4&#10;&#9;&#9;&#9;&#9;L232.5,318c-5.1-2.1-10.6-3.3-16.4-3.3c-23.8,0-43.1,19.4-43.1,43.1c0,23.8,19.4,43.1,43.1,43.1c23.8,0,43.1-19.4,43.1-43.1&#10;&#9;&#9;&#9;&#9;c0-15.7-8.4-29.4-20.9-36.9l11.7-18.1c5.3,2.4,11.2,3.7,17.4,3.7c22.7,0,41.3-17.6,43-39.9h29.9c-0.1,1.1-0.1,2.1-0.1,3.2&#10;&#9;&#9;&#9;&#9;c0,23.8,19.4,43.1,43.1,43.1c23.8,0,43.1-19.4,43.1-43.1c0-23.8-19.4-43.1-43.1-43.1c-20.5,0-37.6,14.3-42,33.5h-30.9&#10;&#9;&#9;&#9;&#9;c-1.7-22.3-20.3-39.9-43-39.9c-6.2,0-12,1.3-17.3,3.6l-11.9-19.4c11.4-7.8,18.9-20.8,18.9-35.6c0-23.8-19.4-43.1-43.1-43.1&#10;&#9;&#9;&#9;&#9;s-43.1,19.4-43.1,43.1S190,212.1,213.8,212.1z M202.4,327.6c6.9,0,12.6,5.6,12.6,12.6c0,6.9-5.6,12.6-12.6,12.6&#10;&#9;&#9;&#9;&#9;s-12.6-5.6-12.6-12.6C189.8,333.3,195.5,327.6,202.4,327.6z M252.7,357.9c0,20.2-16.5,36.7-36.7,36.7s-36.7-16.5-36.7-36.7&#10;&#9;&#9;&#9;&#9;c0-6,1.5-11.7,4.1-16.8c0.5,10.1,8.8,18.1,19,18.1c10.5,0,19-8.5,19-19c0-8.5-5.6-15.7-13.3-18.1c2.5-0.6,5.1-0.9,7.8-0.9&#10;&#9;&#9;&#9;&#9;c5.7,0,11,1.3,15.8,3.6c0,0,0,0,0,0c0.1,0,0.1,0.1,0.2,0.1C244.3,330.9,252.7,343.4,252.7,357.9z M369.7,239.6&#10;&#9;&#9;&#9;&#9;c6.9,0,12.6,5.6,12.6,12.6c0,6.9-5.6,12.6-12.6,12.6c-6.9,0-12.6-5.6-12.6-12.6C357.1,245.2,362.8,239.6,369.7,239.6z M347,264.2&#10;&#9;&#9;&#9;&#9;c0-0.1,0.1-0.3,0.1-0.4c0.6-3.8,1.9-7.4,3.6-10.8c0.5,10.1,8.8,18.1,19,18.1c10.5,0,19-8.5,19-19c0-8.5-5.6-15.7-13.3-18.1&#10;&#9;&#9;&#9;&#9;c2.5-0.6,5.1-0.9,7.8-0.9c20.2,0,36.7,16.5,36.7,36.7c0,20.2-16.5,36.7-36.7,36.7c-20.2,0-36.7-16.5-36.7-36.7&#10;&#9;&#9;&#9;&#9;C346.6,267.9,346.8,266,347,264.2z M267.3,226.7c20.2,0,36.7,16.5,36.7,36.7s-16.5,36.7-36.7,36.7s-36.7-16.5-36.7-36.7&#10;&#9;&#9;&#9;&#9;c0-6,1.5-11.7,4.1-16.8c0.5,10.1,8.8,18.1,19,18.1c10.5,0,19-8.5,19-19c0-8.5-5.6-15.7-13.3-18.1&#10;&#9;&#9;&#9;&#9;C262,227,264.6,226.7,267.3,226.7z M253.7,233.1c6.9,0,12.6,5.6,12.6,12.6s-5.6,12.6-12.6,12.6c-6.9,0-12.6-5.6-12.6-12.6&#10;&#9;&#9;&#9;&#9;S246.8,233.1,253.7,233.1z M200.2,138.7c6.9,0,12.6,5.6,12.6,12.6c0,6.9-5.6,12.6-12.6,12.6c-6.9,0-12.6-5.6-12.6-12.6&#10;&#9;&#9;&#9;&#9;C187.6,144.3,193.3,138.7,200.2,138.7z M181.2,152.1c0.5,10.1,8.8,18.1,19,18.1c10.5,0,19-8.5,19-19c0-8.5-5.6-15.7-13.3-18.1&#10;&#9;&#9;&#9;&#9;c2.5-0.6,5.1-0.9,7.8-0.9c20.2,0,36.7,16.5,36.7,36.7s-16.5,36.7-36.7,36.7s-36.7-16.5-36.7-36.7&#10;&#9;&#9;&#9;&#9;C177.1,162.9,178.6,157.2,181.2,152.1z" style="fill: rgb(255, 255, 255); opacity: 1; stroke: rgb(255, 254, 250); stroke-width: 4; fill-opacity: 1;"/>
			<path class="st510" d="M356.7,183.6c11.8,0,21.4-9.6,21.4-21.4c0-11.8-9.6-21.4-21.4-21.4c-11.8,0-21.4,9.6-21.4,21.4&#10;&#9;&#9;&#9;&#9;C335.3,174.1,344.9,183.6,356.7,183.6z M356.7,147.4c8.2,0,14.9,6.7,14.9,14.9s-6.7,14.9-14.9,14.9c-8.2,0-14.9-6.7-14.9-14.9&#10;&#9;&#9;&#9;&#9;S348.5,147.4,356.7,147.4z" style="fill: rgb(255, 255, 255); opacity: 1; stroke: rgb(255, 254, 250); stroke-width: 4; fill-opacity: 1;"/>
			<path class="st510" d="M171.3,215.8c0-12.3-10-22.3-22.3-22.3c-12.3,0-22.3,10-22.3,22.3c0,12.3,10,22.3,22.3,22.3&#10;&#9;&#9;&#9;&#9;C161.3,238.1,171.3,228.1,171.3,215.8z M149,231.6c-8.7,0-15.8-7.1-15.8-15.8c0-8.7,7.1-15.8,15.8-15.8c8.7,0,15.8,7.1,15.8,15.8&#10;&#9;&#9;&#9;&#9;C164.8,224.5,157.7,231.6,149,231.6z" style="fill: rgb(255, 255, 255); opacity: 1; stroke: rgb(255, 254, 250); stroke-width: 4; fill-opacity: 1;"/>
			<path class="st510" d="M325.6,325.5c-17.9,0-32.4,14.5-32.4,32.4c0,17.9,14.5,32.4,32.4,32.4c17.9,0,32.4-14.5,32.4-32.4&#10;&#9;&#9;&#9;&#9;C358,340,343.4,325.5,325.6,325.5z M325.6,383.8c-14.3,0-25.9-11.6-25.9-25.9c0-14.3,11.6-25.9,25.9-25.9&#10;&#9;&#9;&#9;&#9;c14.3,0,25.9,11.6,25.9,25.9C351.5,372.2,339.9,383.8,325.6,383.8z" style="fill: rgb(255, 255, 255); opacity: 1; stroke: rgb(255, 254, 250); stroke-width: 4; fill-opacity: 1;"/>
		</g></g>
	</g></g></svg>